<?xml version="1.0" encoding="utf-8"?>
<!-- Generator: Adobe Illustrator 26.0.1, SVG Export Plug-In . SVG Version: 6.00 Build 0)  -->
<svg version="1.1" id="Layer_1" xmlns="http://www.w3.org/2000/svg" xmlns:xlink="http://www.w3.org/1999/xlink" x="0px" y="0px"
	 viewBox="0 0 19.5 5.8" style="enable-background:new 0 0 19.5 5.8;" xml:space="preserve">
<style type="text/css">
	.st0{fill:none;stroke:#000000;stroke-width:0.25;stroke-linecap:round;}
</style>
<g>
	<path class="st0" d="M2.3,1c0,1-0.5,1.8-0.7,2.8c0,0.2-0.1,0.6-0.1,0.1c0-0.6,0.2-1.1,0.2-1.6c0-0.2,0-0.4,0.1-0.6
		C2,1.3,2.5,1.1,2.9,1.1c0.2,0,0,0.5,0,0.6C2.7,1.9,2.5,2.2,2.2,2.2c-0.3,0-0.4,0.4-0.3,0.3c0.3-0.4,0.8-0.4,1.2-0.3
		C3.9,2.2,4.2,3,4.5,3.7C4.7,4,4.4,4,4.2,4C3.4,4,2.7,4,2,4C1.7,4,0.6,3.9,0.5,4.2"/>
	<path class="st0" d="M5.8,4.8c0.1-1.1,0.8-2.1,1.4-3C7.5,1.3,7.7,0.6,8,0.2C8.2,0,8.3,0.5,8.5,0.7c0.4,0.4,0.7,0.7,0.9,1.3
		c0.2,0.4,0.4,1,0.4,1.4c0,0.2-0.1,0.3-0.1,0.4c0,0.4,0,0.8,0,1.2"/>
	<path class="st0" d="M5.4,2.9h5"/>
	<path class="st0" d="M12.8,1.9c-0.2-0.1-0.4-0.4-0.7-0.4c-0.4,0-0.4,0.3-0.6,0.5c-0.5,0.6-0.9,0.9-0.9,1.7c0,0.3-0.1,0.6,0.2,0.8
		c0.3,0.2,1,0.1,1.4,0.1c0.1,0,0.3-0.4,0.4-0.6c0.1-0.2,0.3-0.3,0.6-0.3"/>
	<path class="st0" d="M15.7,1.2c0,0.6-0.2,0.9-0.4,1.4c-0.2,0.4-0.3,0.9-0.5,1.3c-0.2,0.4-0.5,0.8-0.7,1.2c0,0.1-0.2,0.6-0.3,0.5"/>
	<path class="st0" d="M14.5,3c0.5-0.1,1.1-0.2,1.6-0.3c0.1,0,0.5-0.1,0.6-0.1c0.1-0.1,0.4-0.1,0.5-0.1"/>
	<path class="st0" d="M14.8,2.5c0.5,0,0.7,0.2,1.1,0.4c0.2,0.1,0.4,0.1,0.7,0.2c0.6,0.2,1.1,0.5,1.5,1c0.1,0.1,1,0.8,0.8,1.1
		c-0.1,0.1-0.7-0.6-0.9-0.2"/>
</g>
</svg>
