<svg width="55" height="65" viewBox="0 0 55 65" fill="none" xmlns="http://www.w3.org/2000/svg">
<path d="M28.4302 0C36.1499 0 42.1403 2.03369 46.4013 6.10107C50.6624 10.1685 53.0281 14.7892 53.4985 19.9634H45.4468C44.5337 16.0344 42.7075 12.9216 39.9682 10.625C37.2566 8.32845 33.4383 7.18018 28.5132 7.18018C22.5089 7.18018 17.653 9.29689 13.9453 13.5303C10.2653 17.736 8.42529 24.1968 8.42529 32.9126C8.42529 40.0513 10.0854 45.848 13.4057 50.3027C16.7537 54.7298 21.7342 56.9434 28.3471 56.9434C34.4344 56.9434 39.069 54.6053 42.251 49.9292C43.9388 47.4666 45.1977 44.2293 46.0278 40.2173H54.0796C53.3602 46.6366 50.9806 52.0182 46.9409 56.3623C42.0988 61.5918 35.5688 64.2066 27.351 64.2066C20.2677 64.2066 14.3188 62.0622 9.50443 57.7734C3.16814 52.1012 0 43.3439 0 31.5015C0 22.509 2.37956 15.1351 7.13868 9.37989C12.2851 3.12663 19.3823 0 28.4302 0Z" fill="black"/>
</svg>
