<svg width="60" height="65" viewBox="0 0 60 65" fill="none" xmlns="http://www.w3.org/2000/svg">
<path d="M29.4678 0C40.2311 0 48.1999 3.45866 53.374 10.376C57.4137 15.7715 59.4336 22.6749 59.4336 31.0864C59.4336 40.1896 57.1232 47.7571 52.5024 53.789C47.0792 60.8724 39.3457 64.414 29.3017 64.414C19.9219 64.414 12.548 61.3151 7.18018 55.1172C2.3934 49.1406 0 41.5869 0 32.456C0 24.2106 2.04753 17.1549 6.14258 11.289C11.3997 3.76302 19.1748 0 29.4678 0ZM30.2978 57.0263C37.5749 57.0263 42.832 54.4254 46.0693 49.2236C49.3343 43.9941 50.9668 37.9899 50.9668 31.2109C50.9668 24.0446 49.0853 18.2755 45.3222 13.9038C41.5869 9.53202 36.4681 7.34619 29.9658 7.34619C23.6572 7.34619 18.5107 9.51822 14.5264 13.8623C10.542 18.1787 8.54981 24.5565 8.54981 32.9956C8.54981 39.7469 10.2514 45.4468 13.6548 50.0952C17.0858 54.716 22.6334 57.0263 30.2978 57.0263Z" fill="#0B0B0A"/>
</svg>
