<svg width="60" height="65" viewBox="0 0 60 65" fill="none" xmlns="http://www.w3.org/2000/svg">
<path d="M29.4678 0C40.2311 0 48.1999 3.45866 53.374 10.376C57.4137 15.7715 59.4336 22.675 59.4336 31.0864C59.4336 40.1896 57.1232 47.7572 52.5025 53.7891C47.0793 60.8724 39.3457 64.4141 29.3018 64.4141C19.9219 64.4141 12.548 61.3151 7.18018 55.1172C2.39339 49.1406 0 41.5869 0 32.4561C0 24.2106 2.04753 17.155 6.14258 11.2891C11.3998 3.76302 19.1748 0 29.4678 0ZM30.2979 57.0264C37.5749 57.0264 42.832 54.4255 46.0693 49.2236C49.3343 43.9941 50.9668 37.9899 50.9668 31.2109C50.9668 24.0446 49.0853 18.2756 45.3223 13.9038C41.5869 9.53207 36.4681 7.3462 29.9658 7.3462C23.6572 7.3462 18.5108 9.51823 14.5264 13.8623C10.542 18.1787 8.54981 24.5565 8.54981 32.9956C8.54981 39.7469 10.2515 45.4468 13.6548 50.0952C17.0858 54.716 22.6335 57.0264 30.2979 57.0264Z" fill="black"/>
</svg>
