<svg width="46" height="61" viewBox="0 0 46 61" fill="none" xmlns="http://www.w3.org/2000/svg">
<path d="M0 0H27.4341C32.8573 0 37.229 1.53565 40.5494 4.60694C43.8697 7.65056 45.5298 11.9392 45.5298 17.4731C45.5298 22.2322 44.0495 26.3826 41.0889 29.9243C38.1283 33.4383 33.5767 35.1953 27.4341 35.1953H8.25928V60.9692H0V0ZM37.1875 17.5146C37.1875 13.0322 35.5274 9.98865 32.2071 8.38379C30.3809 7.52605 27.8768 7.09716 24.6949 7.09716H8.25928V28.2226H24.6949C28.4025 28.2226 31.4047 27.434 33.7012 25.8569C36.0254 24.2797 37.1875 21.499 37.1875 17.5146Z" fill="#090A0A"/>
</svg>
