<svg width="49" height="65" viewBox="0 0 49 65" fill="none" xmlns="http://www.w3.org/2000/svg">
<path d="M7.7636 42.832C7.95728 46.2906 8.77352 49.0991 10.2123 51.2573C12.9515 55.297 17.7798 57.3168 24.6972 57.3168C27.7961 57.3168 30.6184 56.8741 33.164 55.9887C38.0891 54.2732 40.5516 51.2019 40.5516 46.7749C40.5516 43.4545 39.514 41.0888 37.4389 39.6777C35.336 38.2942 32.0433 37.0906 27.5609 36.0668L19.3016 34.1992C13.9061 32.9817 10.0878 31.6398 7.84661 30.1733C3.97291 27.6277 2.03606 23.8232 2.03606 18.7597C2.03606 13.2812 3.93141 8.785 7.7221 5.271C11.5127 1.757 16.8806 0 23.8256 0C30.2172 0 35.6403 1.54948 40.0951 4.64844C44.5775 7.71973 46.8187 12.6448 46.8187 19.4238H39.0575C38.6425 16.1588 37.757 13.6547 36.4013 11.9116C33.8834 8.72966 29.6084 7.13867 23.5765 7.13867C18.7068 7.13867 15.2066 8.16244 13.0761 10.2099C10.9455 12.2574 9.88033 14.637 9.88033 17.3486C9.88033 20.3369 11.1254 22.5227 13.6156 23.9062C15.2481 24.7916 18.9419 25.8984 24.6972 27.2265L33.247 29.1772C37.3697 30.118 40.5516 31.4046 42.7929 33.0371C46.6666 35.887 48.6034 40.0236 48.6034 45.4467C48.6034 52.198 46.1408 57.0263 41.2157 59.9316C36.3182 62.8369 30.6184 64.2895 24.1161 64.2895C16.5347 64.2895 10.5997 62.3527 6.31096 58.479C2.02222 54.6329 -0.0806438 49.4173 0.00236415 42.832H7.7636Z" fill="black"/>
</svg>
